#!OML:ASF C:\ViconDB\ViconDB\414\Spring2016\041811\Spring2016.ASF
:FULLY-SPECIFIED
:DEGREES
201
root 7.54622 16.7131 -18.8379 -171.138 -4.10809 178.521
lowerback 14.0458 0.650297 -3.63892
upperback 1.03108 0.120526 -0.122276
thorax -6.80456 0.0972488 1.91393
lowerneck -9.89798 -6.19739 -16.6034
upperneck 5.69941 -8.34803 20.345
head 4.96657 -3.71926 8.60987
rclavicle -5.31749e-015 5.66536e-015
rhumerus -4.77814 10.4342 -59.5501
rradius 104.604
rwrist -6.94819
rhand -38.8488 -21.3674
rfingers 7.12502
rthumb -11.8578 -51.0117
lclavicle -5.31749e-015 5.66536e-015
lhumerus 1.74961 -5.07513 51.1893
lradius 93.0172
lwrist -0.713048
lhand -33.109 13.8297
lfingers 7.12502
lthumb -6.31942 43.7155
rfemur -14.1462 -16.7158 16.6419
rtibia 55.6712
rfoot -1.09384 -11.1448
rtoes -0.514902
lfemur -23.3966 6.58616 -9.82717
ltibia 57.4448
lfoot -27.3624 -3.10376
ltoes -25.8642
202
root 7.54277 16.9694 -19.2369 -171.282 -4.41483 178.667
lowerback 12.1203 0.446786 -3.66997
upperback 0.831015 -0.0163284 0.0756926
thorax -5.93241 0.040264 2.15987
lowerneck -9.64439 -6.07991 -16.6145
upperneck 6.92639 -8.36088 20.0607
head 5.27181 -3.72898 8.53409
rclavicle -4.21175e-015 4.79568e-015
rhumerus -3.06723 10.4209 -57.339
rradius 106.439
rwrist -8.55349
rhand -39.1109 -22.214
rfingers 7.12502
rthumb -12.1106 -51.8435
lclavicle -4.21175e-015 4.79568e-015
lhumerus 3.29117 -4.01064 49.6714
lradius 93.6824
lwrist -0.0421348
lhand -33.2849 13.6015
lfingers 7.12502
lthumb -6.48929 43.482
rfemur -11.8005 -16.2425 16.6007
rtibia 53.7227
rfoot -3.75151 -8.66079
rtoes -1.45199
lfemur -21.0533 5.62636 -9.50699
ltibia 55.2682
lfoot -23.5388 -2.71826
ltoes -27.6807
203
root 7.53643 17.2434 -19.6383 -171.406 -4.46063 178.692
lowerback 10.479 0.357258 -3.62607
upperback 0.526334 -0.0282846 0.077371
thorax -5.33301 0.0425267 2.13228
lowerneck -9.14917 -5.94989 -16.519
upperneck 7.78451 -8.39773 19.9337
head 5.43456 -3.77085 8.49184
rclavicle -1.14922e-015 2.68359e-015
rhumerus -1.83791 10.1856 -55.4112
rradius 108.288
rwrist -9.76207
rhand -38.4334 -22.4451
rfingers 7.12502
rthumb -11.4573 -52.112
lclavicle -1.14922e-015 2.68359e-015
lhumerus 4.69014 -3.41223 47.6742
lradius 94.525
lwrist 1.08951
lhand -33.363 13.7986
lfingers 7.12502
lthumb -6.56466 43.6768
rfemur -9.90734 -15.5642 16.402
rtibia 52.1552
rfoot -6.82509 -5.88886
rtoes -1.51615
lfemur -18.8844 4.6228 -9.46169
ltibia 53.243
lfoot -19.2569 -1.93681
ltoes -28.4901
204
root 7.53991 17.521 -20.0328 -171.943 -4.38479 178.909
lowerback 9.37928 0.363419 -3.62959
upperback 0.391474 0.0501285 0.227529
thorax -4.86225 0.0844914 2.27674
lowerneck -8.60698 -5.82465 -16.4927
upperneck 8.31895 -8.38745 19.8096
head 5.48671 -3.7982 8.46401
rclavicle -1.38349e-014 -6.11884e-015
rhumerus -0.634885 9.77743 -53.3668
rradius 110.089
rwrist -10.9426
rhand -38.2465 -21.6552
rfingers 7.12502
rthumb -11.277 -51.332
lclavicle -1.38349e-014 -6.11884e-015
lhumerus 6.05105 -2.44258 46.1749
lradius 95.3044
lwrist 2.14633
lhand -33.4336 14.0979
lfingers 7.12502
lthumb -6.63285 43.974
rfemur -8.05053 -14.8796 16.3528
rtibia 50.8904
rfoot -10.5697 -2.54509
rtoes -3.77977
lfemur -16.5351 3.83604 -9.18411
ltibia 51.3309
lfoot -14.2463 -1.00321
ltoes -27.4922
